<?xml version="1.0" encoding="UTF-8"?>
<svg width="752pt" height="752pt" version="1.1" viewBox="0 0 752 752" xmlns="http://www.w3.org/2000/svg">
 <defs>
  <clipPath id="b">
   <path d="m301 139.21h151v176.79h-151z"/>
  </clipPath>
  <clipPath id="a">
   <path d="m162 538h428v74.793h-428z"/>
  </clipPath>
 </defs>
 <path d="m493.45 420.99c-2.8398 0-5.2109-2.3672-5.2109-5.2109v-57.301l-55.406-48.309c-2.3672-1.8945-2.3672-5.2109-0.47266-7.5781s5.2109-2.3672 7.5781-0.47266l57.305 49.727c1.4219 0.94531 1.8945 2.3672 1.8945 4.2617v59.672c-0.003907 2.8438-2.3711 5.2109-5.6875 5.2109z"/>
 <path d="m258.55 420.99c-2.8398 0-5.2109-2.3672-5.2109-5.2109v-60.145c0-1.4219 0.47266-2.8398 1.8945-4.2617l57.305-51.148c2.3672-1.8945 5.6836-1.8945 7.5781 0.47266 1.8945 2.3672 1.8945 5.6836-0.47266 7.5781l-55.887 49.727v57.305c0 3.3164-2.3672 5.6836-5.207 5.6836z"/>
 <g clip-path="url(#b)">
  <path d="m376.48 315.86c-41.203 0-74.824-39.781-74.824-88.086-0.003906-48.777 33.621-88.559 74.824-88.559 41.672 0 75.297 39.781 75.297 88.086 0 48.777-33.625 88.559-75.297 88.559zm0-165.75c-35.52 0-63.934 34.57-63.934 77.668 0 42.621 28.887 77.668 63.934 77.668 35.52 0 63.934-34.57 63.934-77.668 0.47266-43.094-28.418-77.668-63.934-77.668z"/>
 </g>
 <path d="m376.48 576.8h-163.86l-39.309-131.66c-2.3672-8.5234-0.94531-17.051 4.2617-24.152 5.2109-7.1055 13.262-10.891 21.785-10.891h352.82c8.5234 0 16.574 3.7891 21.785 10.891 5.2109 7.1055 6.6289 15.629 4.2617 24.152l-37.887 127.87c-0.94531 2.8398-3.7891 4.2617-6.6289 3.7891-2.8398-0.94531-4.2617-3.7891-3.7891-6.6289l37.887-127.87c1.4219-5.2109 0.47266-10.418-2.3672-14.68-3.3164-4.2617-8.0508-6.6289-13.262-6.6289l-352.34-0.003906c-5.2109 0-9.9453 2.3672-13.262 6.6289-3.3164 4.2617-4.2617 9.4727-2.3672 14.68l36.938 124.08h155.81c2.8398 0 5.2109 2.3672 5.2109 5.2109s-2.3672 5.2109-5.6797 5.2109z"/>
 <g clip-path="url(#a)">
  <path d="m567.8 612.79h-383.6c-8.0508 0-14.68-3.7891-18.941-10.891-4.2617-6.6289-4.2617-14.68-0.47266-21.785l20.363-38.359c1.4219-2.8398 4.7344-3.7891 7.1055-2.3672 2.8398 1.4219 3.7891 4.7344 2.3672 7.1055l-20.363 38.359c-1.8945 4.2578-1.4219 8.0469 0.47266 11.836 1.8945 3.3164 5.6836 5.6836 9.4727 5.6836h383.13c3.7891 0 7.5781-1.8945 9.4727-5.6836 1.8945-3.3164 2.3672-7.5781 0.47266-10.891l-20.363-38.359c-1.4219-2.8398-0.47266-5.6836 2.3672-7.1055 2.8398-1.4219 5.6836-0.47266 7.1055 2.3672l20.363 38.359c3.7891 7.1055 3.3164 15.156-0.47266 21.785-3.793 6.1562-10.898 9.9453-18.477 9.9453z"/>
 </g>
</svg>
